<?xml version="1.0" encoding="UTF-8"?>
<svg id="Layer_1" data-name="Layer 1" xmlns="http://www.w3.org/2000/svg" viewBox="0 0 1920 1080">
  <defs>
    <style>
      .cls-1 {
        fill: #b3b3b3;
      }
    </style>
  </defs>
  <path class="cls-1" d="M559.19,405.74v357.85c0,3.83,2.72,5.79,6.09,4.41,33.16-13.17,66.6-24.64,100.83-34.73,3.68-1.04,6.68-4.97,6.68-8.8v-173.1c0-3.83,3-7.76,6.71-8.76h0c3.71-1,6.74,1.32,6.74,5.14v173.1c0,3.83,3.02,6.14,6.77,5.19,36.51-9.28,73.39-16.22,110.62-21.9,3.99-.58,7.24-4.12,7.24-7.95v-357.85c0-3.83-3.25-6.49-7.24-5.91-82.07,12.64-161.16,33.2-238.36,63.86-3.38,1.38-6.09,5.63-6.09,9.46ZM679.5,481.02h0c-3.71,1-6.71-1.27-6.71-5.1v-47.72c0-3.83,3-7.76,6.71-8.76h0c3.71-1,6.74,1.31,6.74,5.14v47.72c0,3.83-3.03,7.72-6.74,8.72Z"/>
  <path class="cls-1" d="M1100.02,328.62c-89.3-9.64-177.97-9.64-267.27,0-4.05.47-7.32,3.99-7.32,7.81v357.85c0,3.83,3.27,6.53,7.32,6.05,39.4-4.28,78.64-6.79,118.27-7.63,4.23-.06,7.67-3.18,7.67-7.01v-173.1c0-3.83,3.44-6.96,7.69-6.96h0c4.25,0,7.69,3.13,7.69,6.96v173.1c0,3.83,3.44,6.95,7.67,7.01,39.63.85,78.87,3.35,118.28,7.63,4.05.47,7.32-2.22,7.32-6.05v-183.03c0-2.48-1.39-4.94-3.65-6.45-11.1-7.41-16.69-11.05-27.92-18.2-4.94-3.14-4.94-9.81,0-12.01,11.23-5,16.82-7.44,27.92-12.18,2.26-.97,3.65-3.08,3.65-5.56v-120.43c0-3.83-3.27-7.34-7.32-7.81ZM966.38,444.05h0c-4.25,0-7.69-3.08-7.69-6.91v-47.72c0-3.83,3.44-6.96,7.69-6.96h0c4.25,0,7.69,3.13,7.69,6.96v47.72c0,3.83-3.44,6.91-7.69,6.91Z"/>
  <path class="cls-1" d="M1259.98,475.92v-47.72c0-3.83-3-7.76-6.71-8.76h0c-3.71-1-6.74,1.31-6.74,5.14v232.47c0,3.83,3.03,7.72,6.74,8.72h0c3.72,1,6.71-1.27,6.71-5.1v-109.3c0-3.83,3-6.11,6.68-5.06,34.22,10.09,67.66,21.55,100.81,34.72,3.38,1.38,6.09,5.63,6.09,9.46v173.1c0,3.83-2.72,5.79-6.09,4.41-77.21-30.66-156.29-51.22-238.36-63.86-3.99-.58-7.24-4.12-7.24-7.95v-357.85c0-3.83,3.25-6.49,7.24-5.91,82.06,12.64,161.15,33.2,238.36,63.86,3.38,1.38,6.09,5.63,6.09,9.45v109.3c0,3.83-2.72,5.79-6.09,4.41-33.16-13.17-66.6-24.64-100.81-34.72-3.68-1.04-6.68-4.98-6.68-8.8Z"/>
</svg>