<?xml version="1.0" encoding="UTF-8"?>
<svg id="Layer_1" data-name="Layer 1" xmlns="http://www.w3.org/2000/svg" viewBox="0 0 1920 1080">
  <defs>
    <style>
      .cls-1 {
        fill: #b3b3b3;
      }
    </style>
  </defs>
  <path class="cls-1" d="M559.19,405.74v357.85c0,3.83,2.72,5.79,6.09,4.41,33.16-13.17,66.6-24.64,100.83-34.73,3.68-1.04,6.68-4.97,6.68-8.8v-173.1c0-3.83,3-7.76,6.71-8.76h0c3.71-1,6.74,1.32,6.74,5.14v278.66c0,3.83-3.03,7.72-6.74,8.72h0c-3.72,1-6.71-1.27-6.71-5.1v-109.3c0-3.83-3-6.11-6.68-5.06-33.23,9.09-66.67,20.56-99.83,33.73-3.37,1.38-6.09-.58-6.09-4.41Z"/>
  <path class="cls-1" d="M1100.02,328.62c-89.3-9.64-177.97-9.64-267.27,0-4.05.47-7.32,3.99-7.32,7.81v357.85c0,3.83,3.27,6.53,7.32,6.05,39.4-4.28,78.64-6.79,118.27-7.63,4.23-.06,7.67-3.18,7.67-7.01v-273.12c0-3.83,3.43-6.95,7.67-6.89,39.63.85,78.87,3.35,118.27,7.63,4.05.47,7.32-2.22,7.32-6.05v-357.85c0-3.83-3.27-7.33-7.32-7.81Z"/>
  <path class="cls-1" d="M1259.98,475.92v-47.72c0-3.83-3-7.76-6.71-8.76h0c-3.71-1-6.74,1.31-6.74,5.14v232.47c0,3.83,3.03,7.72,6.74,8.72h0c3.72,1,6.71-1.27,6.71-5.1v-109.3c0-3.83,3-6.11,6.68-5.06,33.23,9.09,66.67,20.56,99.83,33.73,3.37,1.38,6.09-.58,6.09-4.41v-357.85c0-3.83-2.72-5.79-6.09-4.41-33.16,13.17-66.6,24.64-100.83,34.73-3.68,1.04-6.68,4.97-6.68,8.8v247.25Z"/>
</svg>